<?xml version="1.0" encoding="UTF-8"?>
<svg version="1.1" xmlns="http://www.w3.org/2000/svg" width="700" height="700" viewBox="0 0 700 700">
<path d="M0 0 C0.78181641 0.24057129 1.56363281 0.48114258 2.36914062 0.72900391 C36.17478827 11.3017678 64.52731641 29.71902091 90 54 C90.79921875 54.75796875 91.5984375 55.5159375 92.421875 56.296875 C98.10374479 61.82200355 103.11275618 67.76748698 108 74 C109.07894531 75.35351562 109.07894531 75.35351562 110.1796875 76.734375 C120.52868533 90.06653591 128.88813415 104.72132148 136 120 C136.53238281 121.13566406 137.06476563 122.27132812 137.61328125 123.44140625 C145.15243039 140.25351403 149.61943906 157.93882127 153 176 C153.13422363 176.70705078 153.26844727 177.41410156 153.40673828 178.14257812 C157.55082174 201.24686338 156.02619896 227.010284 152 250 C151.83902832 250.94456055 151.67805664 251.88912109 151.51220703 252.86230469 C145.35834979 287.72825088 129.49228526 320.73968723 107 348 C106.53625977 348.56525391 106.07251953 349.13050781 105.59472656 349.71289062 C95.43558291 362.0233025 84.63281436 373.19836957 72 383 C71.10152344 383.71542969 70.20304687 384.43085937 69.27734375 385.16796875 C24.09760393 420.28014619 -34.47935912 435.90786796 -91.14355469 428.87329102 C-149.37756882 420.5383946 -203.07078482 390.56308867 -238.55859375 343.296875 C-239.7515485 341.68013928 -240.9404173 340.06037993 -242.125 338.4375 C-242.6821167 337.67526123 -243.2392334 336.91302246 -243.81323242 336.12768555 C-246.38074372 332.53860108 -248.63734144 329.24779367 -250 325 C-242.32041998 319.29277113 -234.62653656 313.67678962 -226.625 308.42578125 C-221.52064003 305.04248355 -216.52056825 301.50572439 -211.5 298 C-203.72561227 292.57398853 -195.93591428 287.18821063 -188 282 C-185.06655315 284.74378434 -183.01987381 287.41386207 -181 290.875 C-176.42061188 298.23156543 -170.79976147 304.59371418 -165 311 C-163.96359375 312.14662109 -163.96359375 312.14662109 -162.90625 313.31640625 C-143.68008254 333.47944203 -117.06994485 345.86184863 -90 351 C-88.92621094 351.22429687 -87.85242188 351.44859375 -86.74609375 351.6796875 C-50.36175021 358.19761898 -12.76096097 348.82830072 17.6315918 328.34716797 C45.17105336 309.04139223 65.25225017 280.46118701 74 248 C74.20737793 247.27683594 74.41475586 246.55367187 74.62841797 245.80859375 C80.47260228 224.85268859 80.48080213 199.05286656 75 178 C74.70996094 176.81535156 74.41992188 175.63070312 74.12109375 174.41015625 C64.43674256 137.7392867 40.69531375 105.7956992 7.9296875 86.55078125 C-24.86125562 68.11069794 -64.32110977 62.51401884 -100.8125 72.125 C-137.68073533 82.53091156 -167.58464388 106.19474311 -187 139 C-189.98560533 137.58472084 -192.66878384 135.95084596 -195.39453125 134.0859375 C-196.25626953 133.49772217 -197.11800781 132.90950684 -198.00585938 132.3034668 C-198.93205078 131.66707275 -199.85824219 131.03067871 -200.8125 130.375 C-201.77865234 129.71346924 -202.74480469 129.05193848 -203.74023438 128.37036133 C-219.26189574 117.72611435 -234.73291995 107.00711491 -250 96 C-248.50835732 91.6782677 -246.22739434 88.17091251 -243.5625 84.5 C-243.12292969 83.89051514 -242.68335938 83.28103027 -242.23046875 82.65307617 C-237.47858938 76.15363946 -232.31897046 70.03862965 -227 64 C-226.56123535 63.49807129 -226.1224707 62.99614258 -225.67041016 62.47900391 C-220.44430644 56.51886395 -215.08581829 51.06798108 -209 46 C-207.54980469 44.73542969 -207.54980469 44.73542969 -206.0703125 43.4453125 C-150.22501307 -5.11359429 -70.72963233 -22.20617022 0 0 Z " fill="#0DB164" transform="translate(505,145)"/>
<path d="M0 0 C9.81296696 4.79621085 18.70203186 11.83582379 27.6875 18.03125 C31.35996653 20.56236496 35.04207544 23.0790867 38.72631836 25.59301758 C47.67018056 31.69735074 56.56825111 37.86509654 65.45141602 44.05737305 C71.44795407 48.23416836 77.46253591 52.38261378 83.5 56.5 C91.51970688 61.96922187 99.48991344 67.50751902 107.453125 73.05859375 C114.21181241 77.76618218 120.99857539 82.43034807 127.8034668 87.07080078 C133.9992933 91.30162256 140.15888437 95.58307325 146.3125 99.875 C153.90665622 105.17118345 161.52925998 110.42192356 169.1875 115.625 C176.99491263 120.92963736 184.74674541 126.30661388 192.46826172 131.73535156 C199.45748714 136.64060208 206.50875949 141.45100039 213.5715332 146.24951172 C220.30729622 150.83151051 227.0054886 155.46501461 233.6875 160.125 C243.03913227 166.64659514 252.432216 173.10439159 261.84912109 179.53125 C272.76071458 186.98234494 283.61795189 194.51019412 294.46020508 202.06176758 C302.61758052 207.74088391 310.80002961 213.38260374 319 219 C316.26458083 221.89262717 313.53389641 224.10268716 310.1875 226.25 C304.025183 230.28556613 297.97668341 234.47011538 291.9375 238.6875 C284.75209202 243.70092611 277.55251343 248.69074277 270.3125 253.625 C262.99342126 258.61510581 255.72881455 263.67888158 248.47973633 268.77001953 C242.0669722 273.26799526 235.61047797 277.69850215 229.13793945 282.10986328 C223.45667987 285.98794811 217.8152305 289.91972109 212.1875 293.875 C204.31620631 299.4051002 196.38610034 304.84300706 188.42919922 310.24902344 C181.69318229 314.83117086 174.99475212 319.46484674 168.3125 324.125 C158.96086773 330.64659514 149.567784 337.10439159 140.15087891 343.53125 C130.29436524 350.26187272 120.48052725 357.05236582 110.6875 363.875 C101.21973615 370.47046845 91.71234068 377.00521853 82.18164062 383.50927734 C76.75222492 387.21921605 71.33802687 390.95135595 65.92089844 394.67919922 C64.03424168 395.97645558 62.14625084 397.27174505 60.2578125 398.56640625 C51.39197961 404.64753151 42.563027 410.78034903 33.74267578 416.92724609 C26.50216658 421.968046 19.23335084 426.96581543 11.93823242 431.92724609 C11.21224854 432.4217627 10.48626465 432.9162793 9.73828125 433.42578125 C9.10962158 433.85286377 8.48096191 434.27994629 7.83325195 434.7199707 C6.48911784 435.65848384 5.17919995 436.64650952 3.89135742 437.66088867 C2 439 2 439 0 439 C-0.34833398 427.04795802 -0.61445217 415.09713206 -0.77718258 403.14103889 C-0.85531094 397.58828992 -0.96115403 392.03902467 -1.1315918 386.48828125 C-1.29521036 381.12574281 -1.38438168 375.7665416 -1.42315865 370.40169907 C-1.45076838 368.36077181 -1.50469611 366.32001742 -1.58595085 364.28052139 C-2.18134163 348.70950923 -2.18134163 348.70950923 1.472929 344.17043114 C5.02811743 341.01721003 8.97100897 338.83354773 13.26107025 336.83637428 C15.47173218 335.77311063 17.42210634 334.44544721 19.40234375 333.00390625 C19.99337891 332.5965625 20.58441406 332.18921875 21.19335938 331.76953125 C22.05670898 331.17205078 22.05670898 331.17205078 22.9375 330.5625 C24.27992693 329.63668832 25.62237549 328.710908 26.96484375 327.78515625 C27.96427002 327.09510498 27.96427002 327.09510498 28.98388672 326.39111328 C32.31948569 324.08955807 35.66000847 321.79517367 39 319.5 C40.34245749 318.57683684 41.68490542 317.65365978 43.02734375 316.73046875 C45.60167457 314.96049867 48.17722191 313.19232315 50.75390625 311.42578125 C59.69922519 305.28973603 68.60867759 299.1032351 77.51000977 292.90356445 C83.61301491 288.65477706 89.72984197 284.42734104 95.86328125 280.22265625 C101.76066835 276.17495879 107.63054665 272.08806284 113.5 268 C120.60761777 263.04955805 127.72550876 258.11549536 134.86987305 253.21826172 C140.70332342 249.21475369 146.50779069 245.17002711 152.3125 241.125 C162.50226355 234.02527611 172.73588773 226.99173376 183 220 C170.82998156 210.10767309 157.55086798 201.56698569 144.59033203 192.76171875 C133.50722005 185.22394909 122.50302288 177.57316114 111.50390625 169.91357422 C103.35812336 164.24312622 95.18658185 158.61131833 87 153 C77.87142309 146.74301119 68.76789829 140.45176489 59.6875 134.125 C50.22410591 127.53250574 40.72111299 121.00065841 31.19482422 114.49951172 C27.66715653 112.08939659 24.1455675 109.67047067 20.625 107.25 C20.04371338 106.85063232 19.46242676 106.45126465 18.86352539 106.03979492 C17.68220193 105.2274202 16.51355191 104.39632305 15.35797119 103.54772949 C12.93339357 101.87627059 12.93339357 101.87627059 9.80033875 100.50117493 C0.98459297 95.80721418 0.98459297 95.80721418 -0.72966003 90.91963577 C-1.86374061 84.59142667 -1.48974854 78.17212119 -1.26953125 71.77734375 C-1.24525851 69.70518276 -1.22676581 67.63294673 -1.21379089 65.5606842 C-1.16435216 60.12857981 -1.03685164 54.70105642 -0.89263916 49.27075195 C-0.75920645 43.72084531 -0.70018598 38.17019184 -0.63476562 32.61914062 C-0.49569822 21.74409013 -0.27408757 10.87242717 0 0 Z " fill="#FCFCFC" transform="translate(62,136)"/>
<path d="M0 0 C0 3 0 3 -1.74414062 5.0847168 C-2.54013672 5.86500244 -3.33613281 6.64528809 -4.15625 7.44921875 C-5.01347656 8.29677734 -5.87070312 9.14433594 -6.75390625 10.01757812 C-7.66011719 10.89865234 -8.56632812 11.77972656 -9.5 12.6875 C-10.40621094 13.58017578 -11.31242187 14.47285156 -12.24609375 15.39257812 C-14.49085168 17.60189251 -16.74229998 19.80392533 -19 22 C-19.66 21.67 -20.32 21.34 -21 21 C-15.83184646 15.14346535 -10.69952313 9.4547166 -4.69140625 4.4375 C-3.0380079 3.03230232 -1.51271002 1.55434424 0 0 Z " fill="#1B9D5E" transform="translate(299,188)"/>
</svg>
